<svg width="512" height="512" viewBox="0 0 512 512" fill="none" xmlns="http://www.w3.org/2000/svg">
    <defs>
      <radialGradient id="arcane_depth" cx="0" cy="0" r="1" gradientUnits="userSpaceOnUse" gradientTransform="translate(256 256) scale(220)">
        <stop offset="0" stop-color="#FFFFFF" stop-opacity="0.9" />
        <stop offset="0.2" stop-color="#22D3EE" />
        <stop offset="0.5" stop-color="#818CF8" />
        <stop offset="0.8" stop-color="#0F172A" />
        <stop offset="1.0" stop-color="#000000" stop-opacity="0" />
      </radialGradient>
      <linearGradient id="rune_flow" x1="100" y1="100" x2="400" y2="400" gradientUnits="userSpaceOnUse">
        <stop offset="0" stop-color="#22D3EE" />
        <stop offset="0.5" stop-color="#C084FC" />
        <stop offset="1" stop-color="#22D3EE" />
      </linearGradient>
      <filter id="core_bloom">
        <feGaussianBlur stdDeviation="2.5" result="blur" />
        <feComposite in="SourceGraphic" in2="blur" operator="over" />
      </filter>
    </defs>
    <circle cx="256" cy="256" r="180" fill="url(#arcane_depth)" opacity="0.9" />
    <g opacity="0.8">
        <path d="M256 256 m-60 0 a 60 60 0 1 1 120 0 a 60 60 0 1 1 -120 0" stroke="url(#rune_flow)" stroke-width="2" fill="none" stroke-dasharray="10 5 2 5" transform="rotate(45 256 256)" />
        <path d="M256 256 m-90 0 a 90 90 0 1 0 180 0 a 90 90 0 1 0 -180 0" stroke="url(#rune_flow)" stroke-width="1.5" fill="none" stroke-dasharray="40 20" transform="rotate(-30 256 256)" opacity="0.6"/>
    </g>
    <g filter="url(#core_bloom)">
        <ellipse cx="256" cy="256" rx="130" ry="130" stroke="#22D3EE" stroke-width="2" stroke-dasharray="4 8 20 8" stroke-linecap="round" transform="rotate(90 256 256)" opacity="0.8" />
        <ellipse cx="256" cy="256" rx="140" ry="60" stroke="#C084FC" stroke-width="2" stroke-dasharray="10 30" stroke-linecap="round" transform="rotate(-45 256 256)" opacity="0.7" />
        <ellipse cx="256" cy="256" rx="140" ry="60" stroke="#22D3EE" stroke-width="2" stroke-dasharray="50 50" stroke-linecap="round" transform="rotate(45 256 256)" opacity="0.7" />
    </g>
    <circle cx="256" cy="256" r="8" fill="#FFFFFF" filter="url(#core_bloom)" />
</svg>